Metropolis-Bold Italic.ufo
<glyph name="dollar" format="1">
  <advance width="647"/>
  <unicode hex="0024"/>
  <outline>
    <contour>
      <point x="305" y="-74" type="line"/>
      <point x="478" y="759" type="line"/>
      <point x="368" y="759" type="line"/>
      <point x="195" y="-74" type="line"/>
    </contour>
    <component base="S"/>
  </outline>
</glyph>
<glyph name="quotesingle" format="1">
  <advance width="302"/>
  <unicode hex="0027"/>
  <outline>
    <contour>
      <point x="207" y="370" type="line"/>
      <point x="248" y="441"/>
      <point x="321" y="569"/>
      <point x="321" y="626" type="curve" smooth="yes"/>
      <point x="321" y="671"/>
      <point x="289" y="705"/>
      <point x="243" y="705" type="curve" smooth="yes"/>
      <point x="166" y="705"/>
      <point x="121" y="636"/>
      <point x="121" y="544" type="curve" smooth="yes"/>
      <point x="121" y="492"/>
      <point x="130" y="429"/>
      <point x="139" y="370" type="curve"/>
    </contour>
  </outline>
</glyph>
<glyph name="one" format="1">
  <advance width="455"/>
  <unicode hex="0031"/>
  <outline>
    <contour>
      <point x="336" y="0" type="line"/>
      <point x="479" y="687" type="line"/>
      <point x="323" y="687" type="line"/>
      <point x="63" y="533" type="line"/>
      <point x="114" y="399" type="line"/>
      <point x="241" y="469" type="line"/>
      <point x="142" y="0" type="line"/>
    </contour>
  </outline>
</glyph>
<glyph name="three" format="1">
  <advance width="617"/>
  <unicode hex="0033"/>
  <outline>
    <contour>
      <point x="426" y="-13"/>
      <point x="577" y="73"/>
      <point x="577" y="216" type="curve" smooth="yes"/>
      <point x="577" y="289"/>
      <point x="527" y="336"/>
      <point x="467" y="350" type="curve"/>
      <point x="562" y="377"/>
      <point x="627" y="439"/>
      <point x="627" y="532" type="curve" smooth="yes"/>
      <point x="627" y="629"/>
      <point x="542" y="699"/>
      <point x="385" y="699" type="curve" smooth="yes"/>
      <point x="260" y="699"/>
      <point x="166" y="652"/>
      <point x="92" y="583" type="curve"/>
      <point x="182" y="453" type="line"/>
      <point x="233" y="494"/>
      <point x="290" y="526"/>
      <point x="353" y="526" type="curve" smooth="yes"/>
      <point x="403" y="526"/>
      <point x="429" y="515"/>
      <point x="424" y="488" type="curve" smooth="yes"/>
      <point x="416" y="450"/>
      <point x="376" y="425"/>
      <point x="312" y="425" type="curve" smooth="yes"/>
      <point x="236" y="425" type="line"/>
      <point x="202" y="263" type="line"/>
      <point x="292" y="264" type="line" smooth="yes"/>
      <point x="365" y="265"/>
      <point x="384" y="257"/>
      <point x="384" y="237" type="curve" smooth="yes"/>
      <point x="384" y="192"/>
      <point x="327" y="160"/>
      <point x="263" y="160" type="curve" smooth="yes"/>
      <point x="211" y="160"/>
      <point x="152" y="177"/>
      <point x="111" y="225" type="curve"/>
      <point x="-16" y="106" type="line"/>
      <point x="36" y="38"/>
      <point x="126" y="-13"/>
      <point x="263" y="-13" type="curve" smooth="yes"/>
    </contour>
  </outline>
</glyph>
<glyph name="colon" format="1">
  <advance width="315"/>
  <unicode hex="003A"/>
  <outline>
    <contour>
      <point x="248" y="313"/>
      <point x="309" y="371"/>
      <point x="309" y="440" type="curve" smooth="yes"/>
      <point x="309" y="497"/>
      <point x="267" y="544"/>
      <point x="207" y="544" type="curve" smooth="yes"/>
      <point x="141" y="544"/>
      <point x="78" y="490"/>
      <point x="78" y="419" type="curve" smooth="yes"/>
      <point x="78" y="359"/>
      <point x="120" y="313"/>
      <point x="184" y="313" type="curve" smooth="yes"/>
    </contour>
    <contour>
      <point x="180" y="-12"/>
      <point x="241" y="46"/>
      <point x="241" y="116" type="curve" smooth="yes"/>
      <point x="241" y="172"/>
      <point x="199" y="219"/>
      <point x="140" y="219" type="curve" smooth="yes"/>
      <point x="73" y="219"/>
      <point x="11" y="165"/>
      <point x="11" y="93" type="curve" smooth="yes"/>
      <point x="11" y="34"/>
      <point x="53" y="-12"/>
      <point x="116" y="-12" type="curve" smooth="yes"/>
    </contour>
  </outline>
</glyph>
<glyph name="greater" format="1">
  <advance width="599"/>
  <unicode hex="003E"/>
  <outline>
    <contour>
      <point x="546" y="267" type="line"/>
      <point x="576" y="420" type="line"/>
      <point x="140" y="609" type="line"/>
      <point x="111" y="459" type="line"/>
      <point x="417" y="343" type="line"/>
      <point x="62" y="229" type="line"/>
      <point x="32" y="78" type="line"/>
    </contour>
  </outline>
</glyph>
<glyph name="B" format="1">
  <advance width="711"/>
  <unicode hex="0042"/>
  <outline>
    <contour>
      <point x="397" y="0" type="line" smooth="yes"/>
      <point x="541" y="0"/>
      <point x="670" y="76"/>
      <point x="670" y="209" type="curve" smooth="yes"/>
      <point x="670" y="274"/>
      <point x="634" y="328"/>
      <point x="577" y="354" type="curve"/>
      <point x="654" y="388"/>
      <point x="706" y="455"/>
      <point x="706" y="534" type="curve" smooth="yes"/>
      <point x="706" y="623"/>
      <point x="629" y="687"/>
      <point x="513" y="687" type="curve" smooth="yes"/>
      <point x="149" y="687" type="line"/>
      <point x="6" y="0" type="line"/>
    </contour>
    <contour>
      <point x="256" y="273" type="line"/>
      <point x="421" y="273" type="line" smooth="yes"/>
      <point x="463" y="273"/>
      <point x="480" y="263"/>
      <point x="480" y="239" type="curve" smooth="yes"/>
      <point x="480" y="194"/>
      <point x="441" y="163"/>
      <point x="386" y="163" type="curve" smooth="yes"/>
      <point x="233" y="163" type="line"/>
    </contour>
    <contour>
      <point x="308" y="524" type="line"/>
      <point x="445" y="524" type="line" smooth="yes"/>
      <point x="484" y="524"/>
      <point x="500" y="515"/>
      <point x="501" y="493" type="curve" smooth="yes"/>
      <point x="501" y="450"/>
      <point x="464" y="420"/>
      <point x="411" y="420" type="curve" smooth="yes"/>
      <point x="287" y="420" type="line"/>
    </contour>
  </outline>
</glyph>
<glyph name="D" format="1">
  <advance width="760"/>
  <unicode hex="0044"/>
  <outline>
    <contour>
      <point x="269" y="0" type="line" smooth="yes"/>
      <point x="530" y="0"/>
      <point x="749" y="183"/>
      <point x="749" y="400" type="curve" smooth="yes"/>
      <point x="749" y="568"/>
      <point x="604" y="687"/>
      <point x="399" y="687" type="curve" smooth="yes"/>
      <point x="149" y="687" type="line"/>
      <point x="6" y="0" type="line"/>
    </contour>
    <contour>
      <point x="307" y="511" type="line"/>
      <point x="407" y="511" type="line" smooth="yes"/>
      <point x="491" y="511"/>
      <point x="551" y="462"/>
      <point x="551" y="393" type="curve" smooth="yes"/>
      <point x="551" y="275"/>
      <point x="448" y="176"/>
      <point x="325" y="176" type="curve" smooth="yes"/>
      <point x="237" y="176" type="line"/>
    </contour>
    <contour>
      <point x="399" y="687" type="move" name="top"/>
    </contour>
  </outline>
</glyph>
<glyph name="I" format="1">
  <advance width="321"/>
  <unicode hex="0049"/>
  <outline>
    <contour>
      <point x="204" y="0" type="line"/>
      <point x="347" y="687" type="line"/>
      <point x="153" y="687" type="line"/>
      <point x="10" y="0" type="line"/>
    </contour>
  </outline>
</glyph>
<glyph name="L" format="1">
  <advance width="597"/>
  <unicode hex="004C"/>
  <outline>
    <contour>
      <point x="520" y="0" type="line"/>
      <point x="556" y="173" type="line"/>
      <point x="182" y="173" type="line"/>
      <point x="227" y="117" type="line"/>
      <point x="343" y="687" type="line"/>
      <point x="149" y="687" type="line"/>
      <point x="6" y="0" type="line"/>
    </contour>
  </outline>
</glyph>
<glyph name="N" format="1">
  <advance width="776"/>
  <unicode hex="004E"/>
  <outline>
    <contour>
      <point x="200" y="0" type="line"/>
      <point x="279" y="368" type="line"/>
      <point x="471" y="0" type="line"/>
      <point x="662" y="0" type="line"/>
      <point x="805" y="687" type="line"/>
      <point x="611" y="687" type="line"/>
      <point x="532" y="319" type="line"/>
      <point x="341" y="687" type="line"/>
      <point x="149" y="687" type="line"/>
      <point x="6" y="0" type="line"/>
    </contour>
  </outline>
</glyph>
<glyph name="O" format="1">
  <advance width="814"/>
  <unicode hex="004F"/>
  <outline>
    <contour>
      <point x="581" y="-12"/>
      <point x="803" y="178"/>
      <point x="803" y="399" type="curve" smooth="yes"/>
      <point x="803" y="567"/>
      <point x="671" y="699"/>
      <point x="486" y="699" type="curve" smooth="yes"/>
      <point x="269" y="699"/>
      <point x="47" y="510"/>
      <point x="47" y="289" type="curve" smooth="yes"/>
      <point x="47" y="121"/>
      <point x="179" y="-12"/>
      <point x="363" y="-12" type="curve" smooth="yes"/>
    </contour>
    <contour>
      <point x="298" y="164"/>
      <point x="244" y="220"/>
      <point x="244" y="295" type="curve" smooth="yes"/>
      <point x="244" y="403"/>
      <point x="358" y="523"/>
      <point x="475" y="523" type="curve" smooth="yes"/>
      <point x="551" y="523"/>
      <point x="606" y="467"/>
      <point x="606" y="392" type="curve" smooth="yes"/>
      <point x="606" y="284"/>
      <point x="492" y="164"/>
      <point x="375" y="164" type="curve" smooth="yes"/>
    </contour>
    <contour>
      <point x="484" y="687" type="move" name="top"/>
    </contour>
  </outline>
</glyph>
<glyph name="Q" format="1">
  <advance width="814"/>
  <unicode hex="0051"/>
  <outline>
    <contour>
      <point x="748" y="106" type="line"/>
      <point x="523" y="340" type="line"/>
      <point x="414" y="234" type="line"/>
      <point x="639" y="0" type="line"/>
    </contour>
    <component base="O"/>
  </outline>
</glyph>
<glyph name="R" format="1">
  <advance width="721"/>
  <unicode hex="0052"/>
  <outline>
    <contour>
      <point x="650" y="0" type="line"/>
      <point x="487" y="269" type="line"/>
      <point x="271" y="269" type="line"/>
      <point x="434" y="0" type="line"/>
    </contour>
    <component base="P"/>
  </outline>
</glyph>
<glyph name="S" format="1">
  <advance width="647"/>
  <unicode hex="0053"/>
  <outline>
    <contour>
      <point x="467" y="-12"/>
      <point x="611" y="87"/>
      <point x="611" y="240" type="curve" smooth="yes"/>
      <point x="611" y="349"/>
      <point x="539" y="387"/>
      <point x="379" y="424" type="curve" smooth="yes"/>
      <point x="304" y="441"/>
      <point x="280" y="446"/>
      <point x="280" y="471" type="curve" smooth="yes"/>
      <point x="280" y="500"/>
      <point x="313" y="538"/>
      <point x="380" y="538" type="curve" smooth="yes"/>
      <point x="424" y="538"/>
      <point x="494" y="522"/>
      <point x="551" y="473" type="curve"/>
      <point x="667" y="601" type="line"/>
      <point x="598" y="666"/>
      <point x="502" y="699"/>
      <point x="398" y="699" type="curve" smooth="yes"/>
      <point x="208" y="699"/>
      <point x="82" y="589"/>
      <point x="82" y="448" type="curve" smooth="yes"/>
      <point x="82" y="320"/>
      <point x="185" y="293"/>
      <point x="316" y="260" type="curve" smooth="yes"/>
      <point x="395" y="240"/>
      <point x="414" y="238"/>
      <point x="414" y="216" type="curve" smooth="yes"/>
      <point x="414" y="186"/>
      <point x="377" y="149"/>
      <point x="299" y="149" type="curve" smooth="yes"/>
      <point x="236" y="149"/>
      <point x="161" y="173"/>
      <point x="103" y="228" type="curve"/>
      <point x="-23" y="109" type="line"/>
      <point x="48" y="34"/>
      <point x="161" y="-12"/>
      <point x="285" y="-12" type="curve" smooth="yes"/>
    </contour>
    <contour>
      <point x="396" y="687" type="move" name="top"/>
    </contour>
    <contour>
      <point x="270" y="0" type="move" name="bottom"/>
    </contour>
  </outline>
</glyph>
<glyph name="W" format="1">
  <advance width="1076"/>
  <unicode hex="0057"/>
  <outline>
    <contour>
      <point x="341" y="0" type="line"/>
      <point x="570" y="397" type="line"/>
      <point x="628" y="0" type="line"/>
      <point x="824" y="0" type="line"/>
      <point x="1157" y="687" type="line"/>
      <point x="945" y="687" type="line"/>
      <point x="777" y="290" type="line"/>
      <point x="729" y="687" type="line"/>
      <point x="520" y="687" type="line"/>
      <point x="303" y="290" type="line"/>
      <point x="303" y="687" type="line"/>
      <point x="97" y="687" type="line"/>
      <point x="145" y="0" type="line"/>
    </contour>
    <contour>
      <point x="625" y="687" type="move" name="top"/>
    </contour>
  </outline>
</glyph>
<glyph name="asciicircum" format="1">
  <advance width="486"/>
  <unicode hex="005E"/>
  <outline>
    <contour>
      <point x="202" y="413" type="line"/>
      <point x="314" y="573" type="line"/>
      <point x="357" y="413" type="line"/>
      <point x="482" y="413" type="line"/>
      <point x="397" y="687" type="line"/>
      <point x="268" y="687" type="line"/>
      <point x="68" y="413" type="line"/>
    </contour>
  </outline>
</glyph>
<glyph name="a" format="1">
  <advance width="676"/>
  <unicode hex="0061"/>
  <outline>
    <contour>
      <point x="571" y="0" type="line"/>
      <point x="679" y="517" type="line"/>
      <point x="486" y="517" type="line"/>
      <point x="378" y="0" type="line"/>
    </contour>
    <component base="lowercase_loop_reverse" xOffset="-99"/>
  </outline>
</glyph>
<glyph name="b" format="1">
  <advance width="676"/>
  <unicode hex="0062"/>
  <outline>
    <contour>
      <point x="191" y="1" type="line"/>
      <point x="336" y="699" type="line"/>
      <point x="143" y="699" type="line"/>
      <point x="-2" y="1" type="line"/>
    </contour>
    <component base="lowercase_loop" xOffset="50"/>
  </outline>
</glyph>
<glyph name="d" format="1">
  <advance width="676"/>
  <unicode hex="0064"/>
  <outline>
    <contour>
      <point x="571" y="1" type="line"/>
      <point x="716" y="699" type="line"/>
      <point x="523" y="699" type="line"/>
      <point x="378" y="1" type="line"/>
    </contour>
    <component base="lowercase_loop_reverse" xOffset="-99"/>
  </outline>
</glyph>
<glyph name="e" format="1">
  <advance width="560"/>
  <unicode hex="0065"/>
  <outline>
    <contour>
      <point x="336" y="-12"/>
      <point x="428" y="16"/>
      <point x="484" y="63" type="curve"/>
      <point x="391" y="180" type="line"/>
      <point x="353" y="153"/>
      <point x="306" y="132"/>
      <point x="260" y="132" type="curve" smooth="yes"/>
      <point x="213" y="132"/>
      <point x="185" y="163"/>
      <point x="185" y="213" type="curve" smooth="yes"/>
      <point x="185" y="295"/>
      <point x="253" y="385"/>
      <point x="338" y="385" type="curve" smooth="yes"/>
      <point x="368" y="385"/>
      <point x="390" y="374"/>
      <point x="390" y="359" type="curve" smooth="yes"/>
      <point x="389" y="331"/>
      <point x="359" y="314"/>
      <point x="310" y="314" type="curve"/>
      <point x="92" y="314" type="line"/>
      <point x="71" y="213" type="line"/>
      <point x="289" y="213" type="line"/>
      <point x="450" y="207"/>
      <point x="545" y="272"/>
      <point x="545" y="388" type="curve" smooth="yes"/>
      <point x="545" y="471"/>
      <point x="461" y="529"/>
      <point x="343" y="529" type="curve" smooth="yes"/>
      <point x="163" y="529"/>
      <point x="23" y="387"/>
      <point x="23" y="210" type="curve" smooth="yes"/>
      <point x="23" y="78"/>
      <point x="115" y="-12"/>
      <point x="263" y="-12" type="curve" smooth="yes"/>
    </contour>
    <contour>
      <point x="345" y="517" type="move" name="top"/>
    </contour>
    <contour>
      <point x="263" y="-12" type="move" name="bottom"/>
    </contour>
  </outline>
</glyph>
<glyph name="h" format="1">
  <advance width="627"/>
  <unicode hex="0068"/>
  <outline>
    <contour>
      <point x="190" y="0" type="line"/>
      <point x="336" y="699" type="line"/>
      <point x="143" y="699" type="line"/>
      <point x="-3" y="0" type="line"/>
    </contour>
    <component base="lowercase_nh_shoulder" xOffset="29"/>
  </outline>
</glyph>
<glyph name="i" format="1">
  <advance width="304"/>
  <unicode hex="0069"/>
  <outline>
    <contour>
      <point x="286" y="573"/>
      <point x="336" y="623"/>
      <point x="336" y="680" type="curve" smooth="yes"/>
      <point x="336" y="730"/>
      <point x="299" y="771"/>
      <point x="247" y="771" type="curve" smooth="yes"/>
      <point x="192" y="771"/>
      <point x="139" y="724"/>
      <point x="139" y="664" type="curve" smooth="yes"/>
      <point x="139" y="614"/>
      <point x="177" y="573"/>
      <point x="231" y="573" type="curve" smooth="yes"/>
    </contour>
    <component base="idotless"/>
  </outline>
</glyph>
<glyph name="k" format="1">
  <advance width="580"/>
  <unicode hex="006B"/>
  <outline>
    <contour>
      <point x="182" y="0" type="line"/>
      <point x="210" y="119" type="line"/>
      <point x="265" y="171" type="line"/>
      <point x="322" y="0" type="line"/>
      <point x="533" y="0" type="line"/>
      <point x="412" y="294" type="line"/>
      <point x="641" y="517" type="line"/>
      <point x="421" y="517" type="line"/>
      <point x="250" y="336" type="line"/>
      <point x="328" y="699" type="line"/>
      <point x="143" y="699" type="line"/>
      <point x="-3" y="0" type="line"/>
    </contour>
  </outline>
</glyph>
<glyph name="l" format="1">
  <advance width="303"/>
  <unicode hex="006C"/>
  <outline>
    <contour>
      <point x="194" y="0" type="line"/>
      <point x="340" y="699" type="line"/>
      <point x="147" y="699" type="line"/>
      <point x="1" y="0" type="line"/>
    </contour>
    <contour>
      <point x="296" y="699" type="move" name="top"/>
    </contour>
    <contour>
      <point x="194" y="0" type="move" name="bottom"/>
    </contour>
  </outline>
</glyph>
<glyph name="m" format="1">
  <advance width="952"/>
  <unicode hex="006D"/>
  <outline>
    <contour>
      <point x="850" y="-1" type="line"/>
      <point x="916" y="317"/>
      <point x="922" y="336"/>
      <point x="922" y="365" type="curve" smooth="yes"/>
      <point x="922" y="460"/>
      <point x="853" y="529"/>
      <point x="749" y="529" type="curve" smooth="yes"/>
      <point x="659" y="529"/>
      <point x="572" y="478"/>
      <point x="549" y="389" type="curve"/>
      <point x="581" y="292" type="line"/>
      <point x="587" y="332"/>
      <point x="633" y="369"/>
      <point x="682" y="369" type="curve" smooth="yes"/>
      <point x="717" y="369"/>
      <point x="730" y="351"/>
      <point x="731" y="322" type="curve" smooth="yes"/>
      <point x="732" y="311"/>
      <point x="713" y="226"/>
      <point x="666" y="-1" type="curve"/>
    </contour>
    <contour>
      <point x="520" y="-1" type="line"/>
      <point x="586" y="317"/>
      <point x="592" y="336"/>
      <point x="592" y="364" type="curve" smooth="yes"/>
      <point x="592" y="460"/>
      <point x="520" y="529"/>
      <point x="423" y="529" type="curve" smooth="yes"/>
      <point x="338" y="529"/>
      <point x="271" y="475"/>
      <point x="253" y="387" type="curve"/>
      <point x="251" y="292" type="line"/>
      <point x="258" y="330"/>
      <point x="302" y="369"/>
      <point x="353" y="369" type="curve" smooth="yes"/>
      <point x="393" y="369"/>
      <point x="400" y="344"/>
      <point x="401" y="322" type="curve" smooth="yes"/>
      <point x="402" y="311"/>
      <point x="383" y="226"/>
      <point x="336" y="-1" type="curve"/>
    </contour>
    <component base="idotless" xOffset="-4"/>
  </outline>
</glyph>
<glyph name="n" format="1">
  <advance width="627"/>
  <unicode hex="006E"/>
  <outline>
    <contour>
      <point x="191" y="0" type="line"/>
      <point x="298" y="517" type="line"/>
      <point x="105" y="517" type="line"/>
      <point x="-2" y="0" type="line"/>
    </contour>
    <component base="lowercase_nh_shoulder" xOffset="29"/>
    <contour>
      <point x="380" y="517" type="move" name="top"/>
    </contour>
    <contour>
      <point x="272" y="0" type="move" name="bottom"/>
    </contour>
  </outline>
</glyph>
<glyph name="p" format="1">
  <advance width="676"/>
  <unicode hex="0070"/>
  <outline>
    <contour>
      <point x="155" y="-172" type="line"/>
      <point x="298" y="517" type="line"/>
      <point x="105" y="517" type="line"/>
      <point x="-38" y="-172" type="line"/>
    </contour>
    <component base="lowercase_loop" xOffset="50"/>
  </outline>
</glyph>
<glyph name="q" format="1">
  <advance width="676"/>
  <unicode hex="0071"/>
  <outline>
    <contour>
      <point x="535" y="-172" type="line"/>
      <point x="679" y="517" type="line"/>
      <point x="486" y="517" type="line"/>
      <point x="342" y="-172" type="line"/>
    </contour>
    <component base="lowercase_loop_reverse" xOffset="-99"/>
  </outline>
</glyph>
<glyph name="r" format="1">
  <advance width="463"/>
  <unicode hex="0072"/>
  <outline>
    <contour>
      <point x="254" y="305"/>
      <point x="333" y="369"/>
      <point x="435" y="369" type="curve"/>
      <point x="456" y="529" type="line"/>
      <point x="342" y="529"/>
      <point x="247" y="433"/>
      <point x="217" y="287" type="curve"/>
      <point x="234" y="211" type="line"/>
    </contour>
    <contour>
      <point x="190" y="0" type="line"/>
      <point x="298" y="517" type="line"/>
      <point x="105" y="517" type="line"/>
      <point x="-3" y="0" type="line"/>
    </contour>
    <contour>
      <point x="282" y="517" type="move" name="top"/>
    </contour>
  </outline>
</glyph>
<glyph name="w" format="1">
  <advance width="847"/>
  <unicode hex="0077"/>
  <outline>
    <contour>
      <point x="302" y="0" type="line"/>
      <point x="427" y="266" type="line"/>
      <point x="440" y="0" type="line"/>
      <point x="611" y="0" type="line"/>
      <point x="895" y="517" type="line"/>
      <point x="706" y="517" type="line"/>
      <point x="575" y="259" type="line"/>
      <point x="554" y="517" type="line"/>
      <point x="396" y="517" type="line"/>
      <point x="264" y="259" type="line"/>
      <point x="242" y="517" type="line"/>
      <point x="61" y="517" type="line"/>
      <point x="131" y="0" type="line"/>
    </contour>
    <contour>
      <point x="475" y="517" type="move" name="top"/>
    </contour>
  </outline>
</glyph>
<glyph name="z" format="1">
  <advance width="546"/>
  <unicode hex="007A"/>
  <outline>
    <contour>
      <point x="462" y="0" type="line"/>
      <point x="496" y="160" type="line"/>
      <point x="266" y="160" type="line"/>
      <point x="541" y="384" type="line"/>
      <point x="568" y="517" type="line"/>
      <point x="96" y="517" type="line"/>
      <point x="63" y="357" type="line"/>
      <point x="283" y="357" type="line"/>
      <point x="7" y="133" type="line"/>
      <point x="-18" y="0" type="line"/>
    </contour>
  </outline>
</glyph>
<glyph name="cent" format="1">
  <advance width="556"/>
  <unicode hex="00A2"/>
  <outline>
    <contour>
      <point x="294" y="-74" type="line"/>
      <point x="432" y="589" type="line"/>
      <point x="322" y="589" type="line"/>
      <point x="184" y="-74" type="line"/>
    </contour>
    <component base="c"/>
  </outline>
</glyph>
<glyph name="sterling" format="1">
  <advance width="678"/>
  <unicode hex="00A3"/>
  <outline>
    <contour>
      <point x="601" y="0" type="line"/>
      <point x="631" y="143" type="line"/>
      <point x="256" y="143" type="line"/>
      <point x="302" y="87" type="line"/>
      <point x="372" y="435" type="line" smooth="yes"/>
      <point x="382" y="482"/>
      <point x="430" y="523"/>
      <point x="484" y="523" type="curve" smooth="yes"/>
      <point x="512" y="523"/>
      <point x="543" y="505"/>
      <point x="555" y="470" type="curve"/>
      <point x="698" y="579" type="line"/>
      <point x="661" y="646"/>
      <point x="569" y="699"/>
      <point x="469" y="699" type="curve" smooth="yes"/>
      <point x="330" y="699"/>
      <point x="214" y="609"/>
      <point x="185" y="471" type="curve" smooth="yes"/>
      <point x="116" y="143" type="line"/>
      <point x="2" y="76" type="line"/>
      <point x="-12" y="0" type="line"/>
    </contour>
    <contour>
      <point x="470" y="250" type="line"/>
      <point x="489" y="337" type="line"/>
      <point x="84" y="337" type="line"/>
      <point x="65" y="250" type="line"/>
    </contour>
  </outline>
</glyph>
<glyph name="dieresis" format="1">
  <advance width="524"/>
  <unicode hex="00A8"/>
  <outline>
    <contour>
      <point x="275" y="575"/>
      <point x="319" y="614"/>
      <point x="319" y="666" type="curve" smooth="yes"/>
      <point x="319" y="711"/>
      <point x="286" y="748"/>
      <point x="240" y="748" type="curve" smooth="yes"/>
      <point x="192" y="748"/>
      <point x="148" y="710"/>
      <point x="148" y="656" type="curve" smooth="yes"/>
      <point x="148" y="611"/>
      <point x="179" y="575"/>
      <point x="229" y="575" type="curve" smooth="yes"/>
    </contour>
    <contour>
      <point x="500" y="575"/>
      <point x="544" y="614"/>
      <point x="544" y="667" type="curve" smooth="yes"/>
      <point x="544" y="711"/>
      <point x="512" y="748"/>
      <point x="465" y="748" type="curve" smooth="yes"/>
      <point x="418" y="748"/>
      <point x="373" y="710"/>
      <point x="373" y="657" type="curve" smooth="yes"/>
      <point x="373" y="611"/>
      <point x="405" y="575"/>
      <point x="454" y="575" type="curve" smooth="yes"/>
    </contour>
    <contour>
      <point x="355" y="704" type="move" name="top"/>
    </contour>
    <contour>
      <point x="316" y="517" type="move" name="_top"/>
    </contour>
  </outline>
</glyph>
<glyph name="macron" format="1">
  <advance width="495"/>
  <unicode hex="00AF"/>
  <outline>
    <contour>
      <point x="497" y="573" type="line"/>
      <point x="519" y="679" type="line"/>
      <point x="150" y="679" type="line"/>
      <point x="128" y="573" type="line"/>
    </contour>
    <contour>
      <point x="340" y="704" type="move" name="top"/>
    </contour>
    <contour>
      <point x="301" y="517" type="move" name="_top"/>
    </contour>
  </outline>
</glyph>
<glyph name="acute" format="1">
  <advance width="409"/>
  <unicode hex="00B4"/>
  <outline>
    <contour>
      <point x="260" y="574" type="line"/>
      <point x="440" y="710" type="line"/>
      <point x="275" y="738" type="line"/>
      <point x="129" y="574" type="line"/>
    </contour>
    <contour>
      <point x="278" y="704" type="move" name="top"/>
    </contour>
    <contour>
      <point x="239" y="517" type="move" name="_top"/>
    </contour>
  </outline>
</glyph>
<glyph name="Oslash" format="1">
  <advance width="814"/>
  <unicode hex="00D8"/>
  <outline>
    <contour>
      <point x="154" y="0" type="line"/>
      <point x="867" y="687" type="line"/>
      <point x="702" y="687" type="line"/>
      <point x="-11" y="0" type="line"/>
    </contour>
    <component base="O"/>
  </outline>
</glyph>
<glyph name="eth" format="1">
  <advance width="635"/>
  <unicode hex="00F0"/>
  <outline>
    <contour>
      <point x="239" y="149"/>
      <point x="211" y="172"/>
      <point x="211" y="211" type="curve" smooth="yes"/>
      <point x="211" y="275"/>
      <point x="275" y="338"/>
      <point x="348" y="338" type="curve" smooth="yes"/>
      <point x="395" y="338"/>
      <point x="422" y="313"/>
      <point x="422" y="277" type="curve" smooth="yes"/>
      <point x="422" y="211"/>
      <point x="359" y="149"/>
      <point x="285" y="149" type="curve" smooth="yes"/>
    </contour>
    <contour>
      <point x="412" y="520"/>
      <point x="431" y="427" type="curve"/>
      <point x="400" y="461"/>
      <point x="361" y="492"/>
      <point x="291" y="492" type="curve" smooth="yes"/>
      <point x="142" y="492"/>
      <point x="30" y="355"/>
      <point x="30" y="205" type="curve" smooth="yes"/>
      <point x="30" y="76"/>
      <point x="126" y="-12"/>
      <point x="275" y="-12" type="curve" smooth="yes"/>
      <point x="471" y="-12"/>
      <point x="616" y="156"/>
      <point x="616" y="358" type="curve" smooth="yes"/>
      <point x="616" y="492"/>
      <point x="538" y="594"/>
      <point x="394" y="727" type="curve"/>
      <point x="222" y="664" type="line"/>
      <point x="326" y="588"/>
    </contour>
    <contour>
      <point x="557" y="638" type="line"/>
      <point x="534" y="726" type="line"/>
      <point x="227" y="599" type="line"/>
      <point x="250" y="511" type="line"/>
    </contour>
  </outline>
</glyph>
<glyph name="OE" format="1">
  <advance width="1040"/>
  <unicode hex="0152"/>
  <outline>
    <contour>
      <point x="521" y="0" type="line"/>
      <point x="558" y="176" type="line"/>
      <point x="385" y="176" type="line" smooth="yes"/>
      <point x="303" y="176"/>
      <point x="246" y="224"/>
      <point x="246" y="297" type="curve" smooth="yes"/>
      <point x="246" y="406"/>
      <point x="357" y="511"/>
      <point x="467" y="511" type="curve" smooth="yes"/>
      <point x="628" y="511" type="line"/>
      <point x="664" y="687" type="line"/>
      <point x="491" y="687" type="line" smooth="yes"/>
      <point x="265" y="687"/>
      <point x="48" y="510"/>
      <point x="48" y="291" type="curve" smooth="yes"/>
      <point x="48" y="124"/>
      <point x="182" y="0"/>
      <point x="361" y="0" type="curve" smooth="yes"/>
    </contour>
    <component base="E" xOffset="389"/>
  </outline>
</glyph>
<glyph name="jdotless" format="1">
  <advance width="304"/>
  <unicode hex="0237"/>
  <outline>
    <contour>
      <point x="88" y="-178"/>
      <point x="172" y="-110"/>
      <point x="194" y="-2" type="curve" smooth="yes"/>
      <point x="302" y="517" type="line"/>
      <point x="109" y="517" type="line"/>
      <point x="9" y="38" type="line" smooth="yes"/>
      <point x="3" y="7"/>
      <point x="-28" y="-23"/>
      <point x="-60" y="-23" type="curve" smooth="yes"/>
      <point x="-70" y="-23"/>
      <point x="-88" y="-23"/>
      <point x="-99" y="-18" type="curve"/>
      <point x="-134" y="-151" type="line"/>
      <point x="-108" y="-165"/>
      <point x="-61" y="-178"/>
      <point x="-14" y="-178" type="curve" smooth="yes"/>
    </contour>
  </outline>
</glyph>
<glyph name="commaaccentcomb" format="1">
  <advance width="311"/>
  <unicode hex="0326"/>
  <outline>
    <contour>
      <point x="102" y="-259"/>
      <point x="159" y="-193"/>
      <point x="159" y="-117" type="curve" smooth="yes"/>
      <point x="159" y="-62"/>
      <point x="129" y="-23"/>
      <point x="82" y="-23" type="curve" smooth="yes"/>
      <point x="36" y="-23"/>
      <point x="-6" y="-65"/>
      <point x="-6" y="-115" type="curve" smooth="yes"/>
      <point x="-6" y="-156"/>
      <point x="13" y="-188"/>
      <point x="61" y="-188" type="curve"/>
      <point x="44" y="-212"/>
      <point x="18" y="-240"/>
      <point x="-12" y="-260" type="curve"/>
      <point x="36" y="-306" type="line"/>
    </contour>
    <contour>
      <point x="99" y="0" type="move" name="_bottom"/>
    </contour>
    <contour>
      <point x="207" y="517" type="move" name="_top"/>
    </contour>
  </outline>
</glyph>
<glyph name="emdash" format="1">
  <advance width="873"/>
  <unicode hex="2014"/>
  <outline>
    <contour>
      <point x="822" y="200" type="line"/>
      <point x="855" y="356" type="line"/>
      <point x="59" y="356" type="line"/>
      <point x="26" y="200" type="line"/>
    </contour>
  </outline>
</glyph>
<glyph name="bullet" format="1">
  <advance width="429"/>
  <unicode hex="2022"/>
  <outline>
    <contour>
      <point x="296" y="148"/>
      <point x="374" y="228"/>
      <point x="374" y="316" type="curve" smooth="yes"/>
      <point x="374" y="390"/>
      <point x="320" y="447"/>
      <point x="243" y="447" type="curve" smooth="yes"/>
      <point x="152" y="447"/>
      <point x="74" y="369"/>
      <point x="74" y="279" type="curve" smooth="yes"/>
      <point x="74" y="205"/>
      <point x="128" y="148"/>
      <point x="206" y="148" type="curve" smooth="yes"/>
    </contour>
  </outline>
</glyph>
